<mxfile host="Electron" modified="2023-11-26T07:16:53.062Z" agent="Mozilla/5.0 (Windows NT 10.0; Win64; x64) AppleWebKit/537.36 (KHTML, like Gecko) draw.io/22.0.3 Chrome/114.0.5735.289 Electron/25.8.4 Safari/537.36" etag="J__ClzryH2ZLyh7b14Nv" version="22.0.3" type="device">
  <diagram name="Page-1" id="D9zxaJIZI2jFiH7-IOss">
    <mxGraphModel dx="1195" dy="737" grid="0" gridSize="10" guides="1" tooltips="1" connect="1" arrows="1" fold="1" page="1" pageScale="1" pageWidth="827" pageHeight="1169" background="#ffffff" math="0" shadow="0">
      <root>
        <mxCell id="0" />
        <mxCell id="1" parent="0" />
        <mxCell id="j4xtqiPVJbpslY6F7Nk5-2" value="" style="verticalLabelPosition=bottom;verticalAlign=top;html=1;shape=mxgraph.basic.orthogonal_triangle;fillColor=#FFFFFF;strokeColor=#000000;strokeWidth=3;flipV=1;flipH=1;" vertex="1" parent="1">
          <mxGeometry x="108" y="305" width="535" height="183" as="geometry" />
        </mxCell>
        <mxCell id="VNF8RjNs4-iKRPtV0vGd-87" value="alpha" style="text;html=1;align=center;verticalAlign=middle;resizable=0;points=[];autosize=1;strokeColor=none;fillColor=none;fontSize=20;fontColor=#000000;" parent="1" vertex="1">
          <mxGeometry x="581" y="438" width="67" height="36" as="geometry" />
        </mxCell>
        <mxCell id="VNF8RjNs4-iKRPtV0vGd-97" value="c" style="text;html=1;align=center;verticalAlign=middle;resizable=0;points=[];autosize=1;strokeColor=none;fillColor=none;fontSize=20;fontColor=#000000;" parent="1" vertex="1">
          <mxGeometry x="553" y="488" width="28" height="36" as="geometry" />
        </mxCell>
        <mxCell id="VNF8RjNs4-iKRPtV0vGd-102" value="" style="endArrow=none;dashed=1;html=1;dashPattern=1 3;strokeWidth=2;rounded=0;strokeColor=#000000;" parent="1" edge="1">
          <mxGeometry width="50" height="50" relative="1" as="geometry">
            <mxPoint x="512" y="445" as="sourcePoint" />
            <mxPoint x="512" y="305" as="targetPoint" />
          </mxGeometry>
        </mxCell>
        <mxCell id="VNF8RjNs4-iKRPtV0vGd-103" value="Qx" style="text;html=1;align=center;verticalAlign=middle;resizable=0;points=[];autosize=1;strokeColor=none;fillColor=none;fontSize=20;fontColor=#000000;" parent="1" vertex="1">
          <mxGeometry x="709" y="376" width="44" height="36" as="geometry" />
        </mxCell>
        <mxCell id="j4xtqiPVJbpslY6F7Nk5-3" value="" style="endArrow=classic;html=1;rounded=0;strokeColor=#2D7600;strokeWidth=3;fillColor=#60a917;exitX=0.8;exitY=1.008;exitDx=0;exitDy=0;exitPerimeter=0;" edge="1" parent="1">
          <mxGeometry width="50" height="50" relative="1" as="geometry">
            <mxPoint x="106" y="304.32000000000005" as="sourcePoint" />
            <mxPoint x="225" y="305" as="targetPoint" />
          </mxGeometry>
        </mxCell>
        <mxCell id="j4xtqiPVJbpslY6F7Nk5-4" value="" style="endArrow=classic;html=1;rounded=0;strokeColor=#6F0000;strokeWidth=3;fillColor=#a20025;exitX=0;exitY=0;exitDx=0;exitDy=0;" edge="1" parent="1">
          <mxGeometry width="50" height="50" relative="1" as="geometry">
            <mxPoint x="106" y="303" as="sourcePoint" />
            <mxPoint x="107" y="424" as="targetPoint" />
          </mxGeometry>
        </mxCell>
        <mxCell id="j4xtqiPVJbpslY6F7Nk5-6" value="x0" style="text;html=1;align=center;verticalAlign=middle;resizable=0;points=[];autosize=1;strokeColor=none;fillColor=none;fontSize=20;fontColor=#000000;" vertex="1" parent="1">
          <mxGeometry x="110" y="395" width="40" height="40" as="geometry" />
        </mxCell>
        <mxCell id="j4xtqiPVJbpslY6F7Nk5-7" value="z0" style="text;html=1;align=center;verticalAlign=middle;resizable=0;points=[];autosize=1;strokeColor=none;fillColor=none;fontSize=20;fontColor=#000000;" vertex="1" parent="1">
          <mxGeometry x="74" y="267" width="40" height="40" as="geometry" />
        </mxCell>
        <mxCell id="j4xtqiPVJbpslY6F7Nk5-8" value="y0" style="text;html=1;align=center;verticalAlign=middle;resizable=0;points=[];autosize=1;strokeColor=none;fillColor=none;fontSize=20;fontColor=#000000;" vertex="1" parent="1">
          <mxGeometry x="184" y="267" width="40" height="40" as="geometry" />
        </mxCell>
        <mxCell id="VNF8RjNs4-iKRPtV0vGd-96" value="" style="ellipse;whiteSpace=wrap;html=1;aspect=fixed;fillColor=#0050ef;fontColor=#ffffff;strokeColor=#001DBC;" parent="1" vertex="1">
          <mxGeometry x="103" y="303" width="4" height="4" as="geometry" />
        </mxCell>
        <mxCell id="j4xtqiPVJbpslY6F7Nk5-10" value="" style="whiteSpace=wrap;html=1;aspect=fixed;fillColor=#ffffff;strokeColor=#000000;strokeWidth=3;" vertex="1" parent="1">
          <mxGeometry x="629" y="305" width="14" height="14" as="geometry" />
        </mxCell>
        <mxCell id="j4xtqiPVJbpslY6F7Nk5-11" value="" style="endArrow=none;html=1;rounded=0;strokeColor=#000000;strokeWidth=2;entryX=0.056;entryY=0.056;entryDx=0;entryDy=0;entryPerimeter=0;" edge="1" parent="1">
          <mxGeometry width="50" height="50" relative="1" as="geometry">
            <mxPoint x="629" y="469" as="sourcePoint" />
            <mxPoint x="611.04" y="477.75200000000007" as="targetPoint" />
          </mxGeometry>
        </mxCell>
        <mxCell id="j4xtqiPVJbpslY6F7Nk5-12" value="" style="endArrow=none;html=1;rounded=0;strokeColor=#000000;strokeWidth=2;" edge="1" parent="1">
          <mxGeometry width="50" height="50" relative="1" as="geometry">
            <mxPoint x="643" y="466.99777777777786" as="sourcePoint" />
            <mxPoint x="628" y="469" as="targetPoint" />
          </mxGeometry>
        </mxCell>
        <mxCell id="j4xtqiPVJbpslY6F7Nk5-13" value="" style="ellipse;whiteSpace=wrap;html=1;aspect=fixed;fillColor=#f0a30a;fontColor=#000000;strokeColor=#BD7000;" vertex="1" parent="1">
          <mxGeometry x="639" y="485" width="6" height="6" as="geometry" />
        </mxCell>
        <mxCell id="j4xtqiPVJbpslY6F7Nk5-14" value="" style="ellipse;whiteSpace=wrap;html=1;aspect=fixed;fillColor=#d80073;fontColor=#ffffff;strokeColor=#A50040;" vertex="1" parent="1">
          <mxGeometry x="509" y="441" width="6" height="6" as="geometry" />
        </mxCell>
        <mxCell id="j4xtqiPVJbpslY6F7Nk5-15" value="Q (Qx;Qy)" style="text;html=1;align=center;verticalAlign=middle;resizable=0;points=[];autosize=1;strokeColor=none;fillColor=none;fontSize=20;fontColor=#000000;" vertex="1" parent="1">
          <mxGeometry x="629" y="485" width="109" height="36" as="geometry" />
        </mxCell>
        <mxCell id="j4xtqiPVJbpslY6F7Nk5-16" value="" style="endArrow=classic;startArrow=classic;html=1;rounded=0;strokeColor=#000000;strokeWidth=2;dashed=1;" edge="1" parent="1">
          <mxGeometry width="50" height="50" relative="1" as="geometry">
            <mxPoint x="713" y="488" as="sourcePoint" />
            <mxPoint x="713" y="303" as="targetPoint" />
          </mxGeometry>
        </mxCell>
        <mxCell id="j4xtqiPVJbpslY6F7Nk5-17" value="" style="endArrow=classic;startArrow=classic;html=1;rounded=0;strokeColor=#000000;strokeWidth=2;dashed=1;" edge="1" parent="1">
          <mxGeometry width="50" height="50" relative="1" as="geometry">
            <mxPoint x="107.0033333333335" y="273" as="sourcePoint" />
            <mxPoint x="511" y="273" as="targetPoint" />
          </mxGeometry>
        </mxCell>
        <mxCell id="j4xtqiPVJbpslY6F7Nk5-18" value="" style="endArrow=classic;startArrow=classic;html=1;rounded=0;strokeColor=#000000;strokeWidth=2;dashed=1;" edge="1" parent="1">
          <mxGeometry width="50" height="50" relative="1" as="geometry">
            <mxPoint x="107.0033333333335" y="242" as="sourcePoint" />
            <mxPoint x="643" y="242" as="targetPoint" />
          </mxGeometry>
        </mxCell>
        <mxCell id="j4xtqiPVJbpslY6F7Nk5-19" value="" style="endArrow=none;dashed=1;html=1;dashPattern=1 3;strokeWidth=2;rounded=0;strokeColor=#000000;" edge="1" parent="1">
          <mxGeometry width="50" height="50" relative="1" as="geometry">
            <mxPoint x="644" y="443.58000000000004" as="sourcePoint" />
            <mxPoint x="512" y="443.58000000000004" as="targetPoint" />
          </mxGeometry>
        </mxCell>
        <mxCell id="j4xtqiPVJbpslY6F7Nk5-20" value="Qy" style="text;html=1;align=center;verticalAlign=middle;resizable=0;points=[];autosize=1;strokeColor=none;fillColor=none;fontSize=20;fontColor=#000000;" vertex="1" parent="1">
          <mxGeometry x="353.5" y="207" width="44" height="36" as="geometry" />
        </mxCell>
        <mxCell id="j4xtqiPVJbpslY6F7Nk5-21" value="a" style="text;html=1;align=center;verticalAlign=middle;resizable=0;points=[];autosize=1;strokeColor=none;fillColor=none;fontSize=20;fontColor=#000000;" vertex="1" parent="1">
          <mxGeometry x="671" y="445" width="29" height="36" as="geometry" />
        </mxCell>
        <mxCell id="j4xtqiPVJbpslY6F7Nk5-22" value="" style="endArrow=classic;startArrow=classic;html=1;rounded=0;strokeColor=#000000;strokeWidth=2;dashed=1;" edge="1" parent="1">
          <mxGeometry width="50" height="50" relative="1" as="geometry">
            <mxPoint x="676" y="489" as="sourcePoint" />
            <mxPoint x="674" y="443" as="targetPoint" />
          </mxGeometry>
        </mxCell>
        <mxCell id="j4xtqiPVJbpslY6F7Nk5-24" value="Wx" style="text;html=1;align=center;verticalAlign=middle;resizable=0;points=[];autosize=1;strokeColor=none;fillColor=none;fontSize=20;fontColor=#000000;" vertex="1" parent="1">
          <mxGeometry x="508" y="353" width="47" height="36" as="geometry" />
        </mxCell>
        <mxCell id="j4xtqiPVJbpslY6F7Nk5-25" value="b" style="text;html=1;align=center;verticalAlign=middle;resizable=0;points=[];autosize=1;strokeColor=none;fillColor=none;fontSize=20;fontColor=#000000;" vertex="1" parent="1">
          <mxGeometry x="570" y="411" width="29" height="36" as="geometry" />
        </mxCell>
        <mxCell id="j4xtqiPVJbpslY6F7Nk5-26" value="Wy" style="text;html=1;align=center;verticalAlign=middle;resizable=0;points=[];autosize=1;strokeColor=none;fillColor=none;fontSize=20;fontColor=#000000;" vertex="1" parent="1">
          <mxGeometry x="274" y="241" width="47" height="36" as="geometry" />
        </mxCell>
        <mxCell id="j4xtqiPVJbpslY6F7Nk5-28" value="" style="endArrow=classic;startArrow=classic;html=1;rounded=0;strokeColor=#000000;strokeWidth=2;dashed=1;" edge="1" parent="1">
          <mxGeometry width="50" height="50" relative="1" as="geometry">
            <mxPoint x="641" y="520" as="sourcePoint" />
            <mxPoint x="508" y="471" as="targetPoint" />
          </mxGeometry>
        </mxCell>
        <mxCell id="j4xtqiPVJbpslY6F7Nk5-29" value="W (Wx;Wy)" style="text;html=1;align=center;verticalAlign=middle;resizable=0;points=[];autosize=1;strokeColor=none;fillColor=none;fontSize=20;fontColor=#000000;" vertex="1" parent="1">
          <mxGeometry x="396" y="435" width="119" height="36" as="geometry" />
        </mxCell>
      </root>
    </mxGraphModel>
  </diagram>
</mxfile>
